:FULLY-SPECIFIED
:FORCE-ALL-JOINTS-BE-3DOF
:DEGREES
65
root 9.08407 16.2949 -27.3186 5.14186 -11.9174 1.03829
lfemur -26.75 7.87652 -24.4057
ltibia 32.6265 0 0
lfoot -10.7816 7.66431 0
ltoes -2.92605 0 0
rfemur -4.24702 -0.630195 15.0661
rtibia 57.3085 0 0
rfoot 6.92048 -10.3679 0
rtoes -5.38458 0 0
lowerback -5.02565 0.441069 -2.77678
upperback -2.14581 0.692774 2.39358
thorax 0.545835 0.367232 4.06424
lowerneck -22.7722 -3.97936 -11.6451
upperneck 18.0334 -4.58971 12.7974
head 10.085 -1.46183 5.82638
lclavicle -5.7549e-15 -1.40617e-14 0
lhumerus -38.9 -6.0805 88.5501
lradius 21.0164 0 0
lwrist -3.44733 0 0
lhand 1.1161 -17.623 0
lfingers 7.12502 0 0
lthumb 26.6582 10.5109 0
rclavicle -5.7549e-15 -1.40617e-14 0
rhumerus -43.0026 13.0841 -90.8619
rradius 37.7311 0 0
rwrist -19.3168 0 0
rhand -29.4557 -25.8969 0
rfingers 7.12502 0 0
rthumb -2.79183 -55.8586 0
66
root 9.10591 16.3086 -27.1955 5.05169 -11.8309 1.22991
lfemur -26.0759 7.67284 -24.7159
ltibia 32.4203 0 0
lfoot -11.1579 7.75789 0
ltoes -2.95677 0 0
rfemur -5.43333 -0.690758 14.9594
rtibia 58.4891 0 0
rfoot 6.2417 -10.6707 0
rtoes -5.06221 0 0
lowerback -4.95694 0.378649 -2.91626
upperback -2.1287 0.620216 2.36649
thorax 0.531414 0.329905 4.10941
lowerneck -22.812 -3.97549 -11.6379
upperneck 18.1296 -4.57564 12.7343
head 10.122 -1.46064 5.80742
lclavicle -6.43511e-15 -1.43662e-14 0
lhumerus -38.3563 -6.32099 88.4428
lradius 21.1879 0 0
lwrist -3.29512 0 0
lhand 0.653761 -17.817 0
lfingers 7.12502 0 0
lthumb 26.2148 10.3739 0
rclavicle -6.43511e-15 -1.43662e-14 0
rhumerus -42.9601 12.9823 -90.7325
rradius 37.5009 0 0
rwrist -19.2685 0 0
rhand -29.4672 -25.6934 0
rfingers 7.12502 0 0
rthumb -2.80291 -55.655 0
67
root 9.12635 16.3203 -27.0755 4.96322 -11.7189 1.40304
lfemur -25.4224 7.44561 -25.0036
ltibia 32.2262 0 0
lfoot -11.5223 7.86556 0
ltoes -2.98762 0 0
rfemur -6.61448 -0.723882 14.9231
rtibia 59.5145 0 0
rfoot 5.39129 -10.9561 0
rtoes -4.87377 0 0
lowerback -4.89718 0.311747 -3.0435
upperback -2.10382 0.539953 2.34649
thorax 0.531064 0.288503 4.1552
lowerneck -22.8514 -3.97433 -11.6343
upperneck 18.2279 -4.56477 12.6737
head 10.1605 -1.46104 5.78955
lclavicle -7.25904e-15 -1.44539e-14 0
lhumerus -37.7611 -6.59277 88.335
lradius 21.3888 0 0
lwrist -3.11076 0 0
lhand 0.154818 -18.039 0
lfingers 7.12502 0 0
lthumb 25.7361 10.212 0
rclavicle -7.25904e-15 -1.44539e-14 0
rhumerus -42.9293 12.9135 -90.6062
rradius 37.3528 0 0
rwrist -19.2669 0 0
rhand -29.4991 -25.5104 0
rfingers 7.12502 0 0
rthumb -2.83372 -55.4715 0
68
root 9.14547 16.3303 -26.9581 4.87656 -11.5827 1.55903
lfemur -24.7866 7.19749 -25.2702
ltibia 32.041 0 0
lfoot -11.8746 7.98489 0
ltoes -3.01853 0 0
rfemur -7.78889 -0.731192 14.9499
rtibia 60.3921 0 0
rfoot 4.38782 -11.224 0
rtoes -4.80809 0 0
lowerback -4.84616 0.240785 -3.15929
upperback -2.07188 0.452703 2.33288
thorax 0.543841 0.243399 4.20129
lowerneck -22.89 -3.97574 -11.634
upperneck 18.3279 -4.55701 12.6154
head 10.2002 -1.46297 5.77268
lclavicle -8.20216e-15 -1.43484e-14 0
lhumerus -37.1206 -6.89372 88.2274
lradius 21.6173 0 0
lwrist -2.89643 0 0
lhand -0.37641 -18.2861 0
lfingers 7.12502 0 0
lthumb 25.2264 10.0279 0
rclavicle -8.20216e-15 -1.43484e-14 0
rhumerus -42.9094 12.8742 -90.4828
rradius 37.279 0 0
rwrist -19.3073 0 0
rhand -29.5492 -25.3465 0
rfingers 7.12502 0 0
rthumb -2.8821 -55.3069 0
69
root 9.16335 16.3385 -26.8431 4.79179 -11.4241 1.69924
lfemur -24.1657 6.93114 -25.517
ltibia 31.8615 0 0
lfoot -12.2148 8.11348 0
ltoes -3.04947 0 0
rfemur -8.95499 -0.714314 15.0323
rtibia 61.1294 0 0
rfoot 3.2499 -11.4742 0
rtoes -4.85396 0 0
lowerback -4.80365 0.166183 -3.2644
upperback -2.03359 0.359186 2.32498
thorax 0.568798 0.194969 4.24734
lowerneck -22.9272 -3.97957 -11.6367
upperneck 18.4294 -4.55225 12.5592
head 10.2409 -1.46639 5.75671
lclavicle -9.23994e-15 -1.40729e-14 0
lhumerus -36.4412 -7.22174 88.1205
lradius 21.872 0 0
lwrist -2.65433 0 0
lhand -0.935604 -18.5551 0
lfingers 7.12502 0 0
lthumb 24.6897 9.82424 0
rclavicle -9.23994e-15 -1.40729e-14 0
rhumerus -42.8995 12.8612 -90.362
rradius 37.2718 0 0
rwrist -19.385 0 0
rhand -29.6152 -25.2002 0
rfingers 7.12502 0 0
rthumb -2.94589 -55.1596 0
70
root 9.18006 16.3453 -26.7303 4.70899 -11.2444 1.82503
lfemur -23.557 6.6492 -25.7454
ltibia 31.6845 0 0
lfoot -12.5431 8.24892 0
ltoes -3.08037 0 0
rfemur -10.1112 -0.674873 15.1632
rtibia 61.7339 0 0
rfoot 1.9961 -11.7064 0
rtoes -5.0002 0 0
lowerback -4.76944 0.0883627 -3.35961
upperback -1.98966 0.260118 2.32207
thorax 0.60499 0.143586 4.29304
lowerneck -22.9625 -3.98568 -11.6422
upperneck 18.5318 -4.55038 12.505
head 10.2823 -1.47125 5.74152
lclavicle -1.03478e-14 -1.36507e-14 0
lhumerus -35.729 -7.57471 88.0151
lradius 22.1514 0 0
lwrist -2.38666 0 0
lhand -1.51844 -18.8428 0
lfingers 7.12502 0 0
lthumb 24.1303 9.60378 0
rclavicle -1.03478e-14 -1.36507e-14 0
rhumerus -42.8989 12.871 -90.2437
rradius 37.3234 0 0
rwrist -19.4954 0 0
rhand -29.695 -25.0701 0
rfingers 7.12502 0 0
rthumb -3.02291 -55.0283 0
